{"title":"Star.Trek.Into.Darkness.2013.TS.XVID.AC3.HQ.Hive-CM8","uid":8514822,"size":1816009938,"categoryP":"video","categoryS":"movies","magnet":"?xt=urn:btih:4a15d41ec6a3ded8a0dbbda6ad51b56ec11f96e3&amp;dn=Star.Trek.Into.Darkness.2013.TS.XVID.AC3.HQ.Hive-CM8&amp;tr=udp%3A%2F%2Ftracker.openbittorrent.com%3A80&amp;tr=udp%3A%2F%2Fopen.demonii.com%3A1337&amp;tr=udp%3A%2F%2Ftracker.coppersurfer.tk%3A6969&amp;tr=udp%3A%2F%2Fexodus.desync.com%3A6969","seeders":2,"leechers":0,"uploader":"R0thschild","files":4,"time":1369694716,"description":"              ***********************************************\n\n                PublicHash - Largest Bittorrent Community\n      \n                         &lt;a href=&quot; http://publichash.com/&quot; rel=&quot;nofollow&quot; target=&quot;_NEW&quot;&gt; http://publichash.com/&lt;/a&gt;\n    \n              ***********************************************\n\nSources\n\nVideo: 720p CAM PSO\nAudio: Millenium/Echo\nthx\n\nGeneral\nComplete name: Star.Trek.Into.Darkness.2013.TS.XVID.AC3.HQ.Hive-CM8.avi\nFormat: AVI\nFormat/Info: Audio Video Interleave\nFile size: 1.68 GiB\nDuration: 2h 2mn\nOverall bit rate: 1 964 Kbps\nWriting application: Nandub v1.0rc2\nWriting library: Nandub build 1853/release\n\nVideo\nID: 0\nFormat: MPEG-4 Visual\nFormat profile: Advanced Simple@L5\nFormat settings, BVOP: 2\nFormat settings, QPel: Yes\nFormat settings, GMC: No warppoints\nFormat settings, Matrix: Default (H.263)\nMuxing mode: Packed bitstream\nCodec ID: XVID\nCodec ID/Hint: XviD\nDuration: 2h 2mn\nBit rate: 1 699 Kbps\nWidth: 720 pixels\nHeight: 320 pixels\nDisplay aspect ratio: 2.25:1\nFrame rate: 25.000 fps\nColor space: YUV\nChroma subsampling: 4:2:0\nBit depth: 8 bits\nScan type: Progressive\nCompression mode: Lossy\nBits/(Pixel*Frame): 0.295\nStream size: 1.45 GiB (86%)\nWriting library: XviD 1.2.1 (UTC 2008-12-04)\n\nAudio\nID: 1\nFormat: AC-3\nFormat/Info: Audio Coding 3\nMode extension: CM (complete main)\nFormat settings, Endianness: Big\nCodec ID: 2000\nDuration: 2h 2mn\nBit rate mode: Constant\nBit rate: 256 Kbps\nChannel(s): 2 channels\nChannel positions: Front: L R\nSampling rate: 48.0 KHz\nBit depth: 16 bits\nCompression mode: Lossy\nStream size: 224 MiB (13%)\nAlignment: Split accross interleaves\nInterleave, duration: 40 ms (1.00 video frame)\nInterleave, preload duration: 500 ms\n\nVideo: 720x320 @bitrate 1700 2pass\nAudio: English AC3 2.0 Stereo\nSample: yes included\nSubs: yes english hardcoded for klingon parts only\n\nIMDb: http://www.imdb.com/title/tt1408101/","torrent":{"xt":"urn:btih:4a15d41ec6a3ded8a0dbbda6ad51b56ec11f96e3","amp;dn":"Star.Trek.Into.Darkness.2013.TS.XVID.AC3.HQ.Hive-CM8","amp;tr":["udp%3A%2F%2Ftracker.openbittorrent.com%3A80","udp%3A%2F%2Fopen.demonii.com%3A1337","udp%3A%2F%2Ftracker.coppersurfer.tk%3A6969","udp%3A%2F%2Fexodus.desync.com%3A6969"],"infoHash":"4a15d41ec6a3ded8a0dbbda6ad51b56ec11f96e3","infoHashBuffer":{"type":"Buffer","data":[74,21,212,30,198,163,222,216,160,219,189,166,173,81,181,110,193,31,150,227]},"announce":[],"urlList":[]}}